<?xml version="1.0" encoding="UTF-8" standalone="no"?>
<!-- Created with Inkscape (http://www.inkscape.org/) -->

<svg
   width="210mm"
   height="297mm"
   viewBox="0 0 210 297"
   version="1.1"
   id="svg5"
   inkscape:version="1.1 (ce6663b3b7, 2021-05-25)"
   sodipodi:docname="drawing.svg"
   xmlns:inkscape="http://www.inkscape.org/namespaces/inkscape"
   xmlns:sodipodi="http://sodipodi.sourceforge.net/DTD/sodipodi-0.dtd"
   xmlns="http://www.w3.org/2000/svg"
   xmlns:svg="http://www.w3.org/2000/svg"
   xmlns:rdf="http://www.w3.org/1999/02/22-rdf-syntax-ns#"
   xmlns:cc="http://creativecommons.org/ns#"
   xmlns:dc="http://purl.org/dc/elements/1.1/">
  <metadata
     id="metadata963">
    <rdf:RDF>
      <cc:Work
         rdf:about="">
        <dc:format>image/svg+xml</dc:format>
        <dc:type
           rdf:resource="http://purl.org/dc/dcmitype/StillImage" />
      </cc:Work>
    </rdf:RDF>
  </metadata>
  <sodipodi:namedview
     id="namedview7"
     pagecolor="#ffffff"
     bordercolor="#666666"
     borderopacity="1.0"
     inkscape:pageshadow="2"
     inkscape:pageopacity="0.0"
     inkscape:pagecheckerboard="0"
     inkscape:document-units="mm"
     showgrid="false"
     inkscape:zoom="1.0074671"
     inkscape:cx="386.61312"
     inkscape:cy="440.70918"
     inkscape:window-width="1853"
     inkscape:window-height="1025"
     inkscape:window-x="67"
     inkscape:window-y="27"
     inkscape:window-maximized="1"
     inkscape:current-layer="layer2"
     showguides="true"
     inkscape:guide-bbox="true"
     inkscape:lockguides="true" />
  <defs
     id="defs2" />
  <g
     inkscape:groupmode="layer"
     id="layer2"
     inkscape:label="Tysk-Fransk"
     style="display:inline">
    <g
       aria-label="TYSK-FRANSK"
       id="text28344"
       style="font-size:19.7556px;line-height:1.25;letter-spacing:2.49767px;word-spacing:0px;display:inline;opacity:1;stroke-width:0.264583">
      <path
         d="m 53.685104,138.93047 6.149329,10.51749 -1.415657,0.8277 -2.580478,-4.41352 -11.017136,6.44146 -0.988372,-1.69046 11.017136,-6.44146 -2.580478,-4.41351 z"
         id="path73054" />
      <path
         d="m 59.565379,149.09254 1.395332,1.56036 -1.752968,6.92499 7.057798,-0.99275 1.395332,1.56036 -9.018141,1.2317 -5.112517,4.5718 -1.30531,-1.45969 5.112517,-4.5718 z"
         id="path73056" />
      <path
         d="m 75.52118,164.46312 -1.123698,1.53249 q -0.580876,-1.08382 -1.220337,-1.87567 -0.639461,-0.79185 -1.378478,-1.33373 -1.283555,-0.94117 -2.348735,-0.95667 -1.057401,-0.01 -1.730478,0.90814 -0.564701,0.77013 -0.396639,1.5034 0.181545,0.7312 1.296053,1.91923 l 0.806452,0.89037 q 1.512807,1.62362 1.723432,3.08187 0.224108,1.45619 -0.814029,2.87199 -1.237778,1.68807 -3.012383,1.72654 -1.766826,0.0442 -3.95276,-1.55867 -0.824586,-0.60462 -1.621184,-1.47581 -0.788818,-0.86548 -1.516455,-1.96122 l 1.186442,-1.61805 q 0.563252,1.23835 1.281547,2.1837 0.718295,0.94535 1.605114,1.59561 1.345788,0.9868 2.464901,0.994 1.119113,0.007 1.837823,-0.97297 0.627445,-0.8557 0.452116,-1.72588 -0.16755,-0.86448 -1.18871,-1.98406 l -0.819934,-0.88829 q -1.5014,-1.63918 -1.739502,-2.96208 -0.238103,-1.32291 0.737289,-2.65314 1.129402,-1.54026 2.860961,-1.63422 1.739339,-0.0882 3.645223,1.30924 0.816808,0.59892 1.556355,1.36847 0.739548,0.76954 1.409614,1.71541 z"
         id="path73058" />
      <path
         d="m 78.860252,165.79069 1.771309,0.81198 -2.536438,5.53315 8.41157,-2.83994 2.279902,1.04513 -9.29544,3.12451 3.758761,10.18043 -2.332516,-1.06924 -3.397096,-9.18694 -2.890173,6.3048 -1.771308,-0.81198 z"
         id="path73060" />
      <path
         d="m 85.951463,177.58182 5.020116,1.35339 -0.411793,1.52746 -5.020116,-1.35339 z"
         id="path73062" />
      <path
         d="m 95.966398,171.634 8.242652,0.74797 -0.1482,1.63316 -6.302073,-0.57187 -0.383574,4.227 5.687237,0.51608 -0.1482,1.63316 -5.687235,-0.51608 -0.621563,6.84966 -1.940577,-0.1761 z"
         id="path73064" />
      <path
         d="m 114.42422,179.05036 q 0.64903,0.13013 1.32159,0.74354 0.68213,0.61218 1.431,1.74097 l 2.46545,3.64988 -2.07599,0.2682 -2.30062,-3.42801 q -0.89333,-1.34356 -1.62357,-1.72582 -0.72067,-0.38349 -1.86868,-0.23518 l -2.1047,0.27191 0.77988,6.03664 -1.93249,0.24966 -1.84526,-14.28321 4.36245,-0.56359 q 2.4491,-0.3164 3.78676,0.55152 1.33766,0.86792 1.60463,2.93434 0.17426,1.34892 -0.3422,2.3202 -0.5069,0.97005 -1.65825,1.46895 z m -5.61573,-5.37299 0.65505,5.07039 2.42996,-0.31393 q 1.39675,-0.18044 2.02188,-0.91288 0.63347,-0.74323 0.47156,-1.99648 -0.16191,-1.25325 -0.96099,-1.79196 -0.79075,-0.54952 -2.1875,-0.36907 z"
         id="path73066" />
      <path
         d="m 123.76618,170.55182 0.0791,7.63861 4.94948,-1.8837 z m -1.71056,-1.40292 2.06454,-0.78573 10.25247,11.50774 -1.89324,0.72054 -2.54023,-2.98628 -6.06739,2.30915 0.088,3.91955 -1.92029,0.73083 z"
         id="path73068" />
      <path
         d="m 130.19939,165.74803 2.15464,-1.49727 12.11934,6.24979 -6.87534,-9.89389 1.5526,-1.07892 8.21849,11.82673 -2.15464,1.49727 -12.11934,-6.24979 6.87534,9.89389 -1.5526,1.07892 z"
         id="path73070" />
      <path
         d="m 147.41908,151.29028 1.41857,1.26446 q -1.13418,0.47508 -1.9833,1.03627 -0.84911,0.56119 -1.45888,1.24528 -1.05906,1.18815 -1.17587,2.24701 -0.1104,1.05167 0.73931,1.80906 0.71289,0.63544 1.45883,0.53793 0.74516,-0.11112 2.03387,-1.1075 l 0.96308,-0.71804 q 1.76024,-1.35141 3.23192,-1.42228 1.4709,-0.0845 2.78147,1.08368 1.56259,1.39283 1.43199,3.16304 -0.12419,1.76301 -1.92781,3.78646 -0.68037,0.7633 -1.62341,1.47336 -0.93663,0.70286 -2.09665,1.3229 l -1.49779,-1.33506 q 1.28634,-0.44283 2.29577,-1.06788 1.00942,-0.62506 1.74113,-1.44596 1.11041,-1.24576 1.2241,-2.35911 0.11368,-1.11334 -0.79363,-1.92208 -0.7921,-0.70604 -1.67502,-0.61433 -0.8765,0.0845 -2.08819,0.99447 l -0.9623,0.73167 q -1.77464,1.33857 -3.1142,1.44968 -1.33956,0.11111 -2.57091,-0.98647 -1.42578,-1.27087 -1.3545,-3.00351 0.0777,-1.73985 1.65024,-3.50407 0.67395,-0.75609 1.51039,-1.41904 0.83644,-0.66294 1.84179,-1.23994 z"
         id="path73072" />
      <path
         d="m 149.00095,148.28795 0.95348,-1.69933 5.3083,2.97844 -2.14577,-8.61483 1.22725,-2.18726 2.35745,9.51894 10.45263,-2.91755 -1.25558,2.23773 -9.43299,2.63796 6.04861,3.39382 -0.95348,1.69933 z"
         id="path73074" />
    </g>
  </g>
  <g
     inkscape:groupmode="layer"
     id="layer5"
     inkscape:label="Sprog"
     style="display:inline">
    <g
       aria-label="SPROGLÆRERNE"
       id="text52917"
       style="font-size:19.7556px;line-height:1.25;letter-spacing:0px;word-spacing:0px;fill:#ff0000;stroke-width:0.264583">
      <path
         d="m 36.264552,100.13798 1.877673,0.2925 q -0.694971,1.01444 -1.103763,1.94655 -0.408791,0.9321 -0.549843,1.83758 -0.244986,1.57267 0.231391,2.52552 0.477862,0.94331 1.60256,1.11851 0.943602,0.14699 1.517301,-0.33963 0.565653,-0.49765 1.107594,-2.03382 l 0.419425,-1.1257 q 0.745403,-2.09024 1.943188,-2.94826 1.189738,-0.86903 2.924442,-0.5988 2.0683,0.32219 2.919034,1.88006 0.85222,1.54834 0.435002,4.22664 -0.157384,1.01033 -0.564307,2.11845 -0.405439,1.0986 -1.043461,2.24882 l -1.982518,-0.30883 q 0.840288,-1.0699 1.349086,-2.14263 0.508799,-1.07273 0.678061,-2.15931 0.256864,-1.64892 -0.2517,-2.64583 -0.508563,-0.99691 -1.709512,-1.18399 -1.048447,-0.16332 -1.740353,0.39276 -0.690422,0.54654 -1.214547,1.96834 l -0.411377,1.13672 q -0.764466,2.08727 -1.829435,2.9074 -1.064969,0.82012 -2.694828,0.56623 -1.887204,-0.29398 -2.767395,-1.7881 -0.878706,-1.50365 -0.51494,-3.83883 0.1559,-1.00079 0.498834,-2.01149 0.342934,-1.01071 0.874388,-2.04086 z"
         style="font-size:19.7556px"
         id="path72931" />
      <path
         d="m 39.921224,91.948048 5.02741,2.002554 0.906682,-2.276225 q 0.503316,-1.263573 0.123986,-2.214192 -0.379331,-0.950618 -1.589135,-1.432516 -1.200843,-0.478329 -2.129894,-0.04887 -0.929051,0.429455 -1.432367,1.693028 z m -2.208673,1.21767 1.627744,-4.086451 q 0.895973,-2.24934 2.374497,-2.989477 1.473131,-0.752669 3.435703,0.02908 1.980494,0.788885 2.532665,2.348287 0.555741,1.55044 -0.340232,3.79978 l -0.906683,2.276225 5.376909,2.141769 -0.721062,1.810226 z"
         style="font-size:19.7556px"
         id="path72933" />
      <path
         d="m 54.257282,78.070333 q 0.534844,-0.390025 1.441564,-0.470497 0.912282,-0.08835 2.250212,0.123558 l 4.355911,0.652782 -1.206622,1.710479 -4.081005,-0.624125 q -1.593833,-0.250774 -2.369303,0.02853 -0.76991,0.271422 -1.437167,1.217309 l -1.223303,1.734125 4.973787,3.508658 -1.123216,1.592242 -11.768406,-8.301784 2.535576,-3.594369 q 1.42348,-2.017892 2.967515,-2.416102 1.544035,-0.398211 3.246631,0.802851 1.111417,0.784027 1.477488,1.821388 0.371631,1.029479 -0.03966,2.214955 z m -7.755856,0.502073 4.177666,2.94705 1.41236,-2.002127 q 0.811829,-1.150829 0.695184,-2.106677 -0.118967,-0.969291 -1.15156,-1.697713 -1.032593,-0.728422 -1.969866,-0.504234 -0.939595,0.210745 -1.751424,1.361574 z"
         style="font-size:19.7556px"
         id="path72935" />
      <path
         d="m 60.284917,62.722851 q -1.63696,1.350565 -1.59747,3.368905 0.04693,2.012201 1.784249,4.117927 1.731178,2.098285 3.697817,2.526642 1.974079,0.422218 3.611039,-0.928347 1.63696,-1.350564 1.582588,-3.356627 -0.04693,-2.012201 -1.778109,-4.110486 -1.737318,-2.105726 -3.703956,-2.534083 -1.959198,-0.434496 -3.596158,0.916069 z m -1.006785,-1.220279 q 2.336389,-1.927625 5.03056,-1.51175 2.688032,0.408433 4.861213,3.04245 2.167043,2.626577 2.063501,5.35069 -0.109681,2.716671 -2.446069,4.644296 -2.343829,1.933763 -5.039302,1.531468 -2.688033,-0.408433 -4.861214,-3.042451 -2.173182,-2.634017 -2.063501,-5.350689 0.110983,-2.730251 2.454812,-4.664014 z"
         style="font-size:19.7556px"
         id="path72937" />
      <path
         d="m 84.67107,61.276335 -1.534584,-3.550736 -2.922052,1.262875 -0.635264,-1.469881 4.692993,-2.028253 2.453038,5.675865 q -0.718368,1.182687 -1.802325,2.103031 -1.087784,0.911489 -2.504536,1.523792 -3.099147,1.339413 -5.633064,0.290778 -2.52889,-1.061317 -3.925706,-4.293284 -1.400643,-3.240821 -0.436952,-5.801079 0.968718,-2.572939 4.067865,-3.912351 1.292786,-0.558727 2.590521,-0.74128 1.306589,-0.186381 2.557344,0.0087 l 0.822781,1.903762 q -1.355281,-0.412585 -2.654665,-0.355422 -1.299383,0.05716 -2.530187,0.5891 -2.426189,1.048569 -3.062624,2.93145 -0.62758,1.879054 0.531969,4.562029 1.155722,2.674121 2.954331,3.504606 1.807463,0.826659 4.233652,-0.22191 0.947454,-0.409477 1.622365,-0.890321 0.671084,-0.489698 1.1151,-1.091434 z"
         style="font-size:19.7556px"
         id="path72939" />
      <path
         d="m 88.414301,47.460017 1.921817,-0.321665 2.106742,12.58695 6.916639,-1.157673 0.270708,1.617371 -8.838456,1.479337 z"
         style="font-size:19.7556px"
         id="path72941" />
      <path
         d="m 119.07895,47.233024 -0.1791,1.63006 -7.10514,-0.780639 -0.46565,4.238156 6.81749,0.749034 -0.17909,1.630061 -6.81749,-0.749035 -0.56994,5.187427 7.28733,0.800656 -0.1791,1.63006 -9.23381,-1.014515 0.40349,-3.67243 -5.06278,-0.556244 -1.93766,3.50387 -1.965659,-0.215966 7.565739,-13.65733 z m -10.45501,0.384598 -3.99018,7.169801 4.40117,0.483553 0.82594,-7.517453 z"
         style="font-size:19.7556px"
         id="path72943" />
      <path
         d="m 129.69798,59.449007 q 0.48978,0.445308 0.75126,1.317229 0.27032,0.875779 0.33228,2.22897 l 0.23809,4.398113 -1.91848,-0.83731 -0.21079,-4.123069 q -0.0754,-1.611676 -0.50524,-2.314982 -0.42096,-0.699448 -1.48187,-1.162476 l -1.94501,-0.848886 -2.43475,5.578638 -1.78588,-0.779432 5.76085,-13.199532 4.03147,1.759507 q 2.26328,0.987794 2.96437,2.419955 0.7011,1.432161 -0.13235,3.341806 -0.54406,1.246573 -1.48641,1.814115 -0.93351,0.571401 -2.17754,0.407354 z m -2.05419,-7.495709 -2.04504,4.685701 2.2456,0.980077 q 1.29077,0.563351 2.20353,0.256542 0.92545,-0.311792 1.43092,-1.469956 0.50548,-1.158164 0.0971,-2.031059 -0.3957,-0.877877 -1.68648,-1.441229 z"
         style="font-size:19.7556px"
         id="path72945" />
      <path
         d="m 141.83352,57.446772 7.23941,5.523759 -0.99474,1.303708 -5.6903,-4.341769 -2.58634,3.38964 5.45257,4.160374 -0.99475,1.303708 -5.45256,-4.160374 -3.16563,4.148858 5.82834,4.447094 -0.99475,1.303708 -7.37745,-5.629086 z"
         style="font-size:19.7556px"
         id="path72947" />
      <path
         d="m 152.34005,77.850119 q 0.22954,0.620877 0.0599,1.515217 -0.16356,0.901839 -0.73199,2.131409 l -1.81493,4.013243 -1.317,-1.62702 1.71245,-3.756546 q 0.67556,-1.465202 0.61811,-2.287434 -0.0514,-0.814733 -0.77967,-1.714468 l -1.3352,-1.649513 -4.73111,3.829606 -1.22596,-1.514553 11.1942,-9.061177 2.76751,3.418991 q 1.5537,1.919434 1.51614,3.51355 -0.0376,1.594116 -1.65708,2.905043 -1.05719,0.855744 -2.15504,0.925317 -1.09179,0.07707 -2.12035,-0.641665 z m 1.63015,-7.599211 -3.97383,3.216627 1.54155,1.904438 q 0.88609,1.094677 1.83756,1.242883 0.96503,0.149635 1.94724,-0.645418 0.98221,-0.795053 1.02188,-1.757948 0.0532,-0.961467 -0.83285,-2.056144 z"
         style="font-size:19.7556px"
         id="path72949" />
      <path
         d="m 164.25539,81.879315 1.07016,2.395632 -8.39596,10.744593 11.00052,-4.91405 0.77114,1.726264 -13.14955,5.874041 -1.07015,-2.395632 8.39596,-10.744593 -11.00053,4.91405 -0.77114,-1.726264 z"
         style="font-size:19.7556px"
         id="path72951" />
      <path
         d="m 170.74928,99.069477 1.53477,8.975823 -1.61641,0.27639 -1.20636,-7.05515 -4.20266,0.71861 1.15596,6.7604 -1.61641,0.27639 -1.15596,-6.7604 -5.14399,0.87957 1.23563,7.22631 -1.61641,0.27639 -1.56404,-9.14698 z"
         style="font-size:19.7556px"
         id="path72953" />
    </g>
  </g>
  <g
     inkscape:groupmode="layer"
     id="layer3"
     inkscape:label="Målrettet"
     style="display:inline">
    <text
       xml:space="preserve"
       style="font-style:normal;font-weight:normal;font-size:9.17222px;line-height:1.25;font-family:sans-serif;text-align:center;letter-spacing:0px;word-spacing:0px;text-anchor:middle;display:inline;fill:#000000;fill-opacity:1;stroke:none;stroke-width:0.264583"
       id="text976"
       y="113.24367"
       x="103.09723"><tspan
         sodipodi:role="line"
         id="tspan974"
         x="103.09723"
         y="113.24367"
         style="font-size:9.17222px;text-align:center;text-anchor:middle;fill:#000000;stroke-width:0.264583">MÅLRETTET</tspan><tspan
         sodipodi:role="line"
         x="103.09723"
         y="124.70895"
         style="font-size:9.17222px;text-align:center;text-anchor:middle;fill:#000000;stroke-width:0.264583"
         id="tspan23839">SPROGUNDERVISNING</tspan></text>
  </g>
  <g
     inkscape:groupmode="layer"
     id="layer4"
     inkscape:label="Circles"
     style="display:none">
    <ellipse
       style="fill:#ff00ff;fill-opacity:0.196631;stroke-width:1.31895"
       id="ellipse940"
       cx="102.85311"
       cy="114.77039"
       rx="74.544785"
       ry="72.182419" />
    <ellipse
       style="fill:#ffff00;fill-opacity:0.196631;stroke-width:0.998234"
       id="path858"
       cx="102.85311"
       cy="114.77039"
       rx="56.418385"
       ry="54.630455" />
  </g>
</svg>
